<svg width="48" height="49" viewBox="0 0 48 49" fill="none" xmlns="http://www.w3.org/2000/svg">
<rect width="48" height="49" fill="white"/>
<path d="M7.98906 45V38.9062H11.1971V37.9541H6.89043V45H7.98906ZM12.7082 42.6611L12.8449 40.6982H14.4123V45H15.4719V39.8633H11.9123L11.7365 42.6172C11.6779 43.5107 11.5021 44.1064 11.0041 44.1064C10.8723 44.1064 10.7746 44.082 10.7258 44.0674V44.9951C10.7893 45.0195 10.9113 45.0488 11.0822 45.0488C12.2346 45.0488 12.6105 44.1162 12.7082 42.6611ZM18.2086 45.0879C18.8824 45.0879 19.5318 44.7266 19.8297 44.1553H19.8541V45H20.8648V41.46C20.8648 40.4297 20.0689 39.7705 18.8238 39.7705C17.5543 39.7705 16.7633 40.4541 16.7047 41.3818H17.7008C17.7936 40.9229 18.1744 40.6299 18.7848 40.6299C19.4293 40.6299 19.815 40.9717 19.815 41.543V41.9385L18.4088 42.0215C17.1881 42.0898 16.4996 42.6416 16.4996 43.54C16.4996 44.4629 17.2076 45.0879 18.2086 45.0879ZM18.5016 44.2529C17.94 44.2529 17.5641 43.96 17.5641 43.5107C17.5641 43.0713 17.9205 42.793 18.5504 42.749L19.815 42.6709V43.0762C19.815 43.7451 19.2389 44.2529 18.5016 44.2529ZM24.4414 45C25.5547 45 26.248 44.4238 26.248 43.5205C26.248 42.8857 25.8086 42.4268 25.1445 42.3389V42.2998C25.6377 42.207 26.0186 41.7188 26.0186 41.1865C26.0186 40.3662 25.4131 39.8633 24.4121 39.8633H22.0781V45H24.4414ZM23.123 40.6299H24.1924C24.7002 40.6299 24.9785 40.874 24.9785 41.3086C24.9785 41.7676 24.6807 41.9971 24.085 41.9971H23.123V40.6299ZM23.123 42.7344H24.1533C24.8467 42.7344 25.1934 42.9785 25.1934 43.4766C25.1934 43.9697 24.8662 44.2334 24.2754 44.2334H23.123V42.7344ZM30.6547 45H31.7094V39.8633H30.6547V41.9336H28.3402V39.8633H27.2855V45H28.3402V42.7637H30.6547V45ZM34.4559 45.0879C35.1297 45.0879 35.7791 44.7266 36.077 44.1553H36.1014V45H37.1121V41.46C37.1121 40.4297 36.3162 39.7705 35.0711 39.7705C33.8016 39.7705 33.0105 40.4541 32.952 41.3818H33.948C34.0408 40.9229 34.4217 40.6299 35.032 40.6299C35.6766 40.6299 36.0623 40.9717 36.0623 41.543V41.9385L34.6561 42.0215C33.4354 42.0898 32.7469 42.6416 32.7469 43.54C32.7469 44.4629 33.4549 45.0879 34.4559 45.0879ZM34.7488 44.2529C34.1873 44.2529 33.8113 43.96 33.8113 43.5107C33.8113 43.0713 34.1678 42.793 34.7977 42.749L36.0623 42.6709V43.0762C36.0623 43.7451 35.4861 44.2529 34.7488 44.2529ZM41.1965 45H42.2414V39.8633H40.2199C39.0188 39.8633 38.2375 40.5273 38.2375 41.5967C38.2375 42.3145 38.677 42.8467 39.3898 43.0566L37.9885 45H39.1896L40.4299 43.2373H41.1965V45ZM40.2736 42.4268C39.6779 42.4268 39.2873 42.0801 39.2873 41.5918C39.2873 41.0352 39.673 40.6934 40.2736 40.6934H41.1965V42.4268H40.2736Z" fill="#3364E0"/>
<path d="M24 25V22" stroke="#3364E0" stroke-width="2" stroke-linecap="round" stroke-linejoin="round"/>
<path d="M22.07 9.81997L15.14 15.37C14.36 15.99 13.86 17.3 14.03 18.28L15.36 26.24C15.6 27.66 16.96 28.81 18.4 28.81H29.6C31.03 28.81 32.4 27.65 32.64 26.24L33.97 18.28C34.13 17.3 33.63 15.99 32.86 15.37L25.93 9.82997C24.86 8.96997 23.13 8.96997 22.07 9.81997Z" stroke="#3364E0" stroke-width="2" stroke-linecap="round" stroke-linejoin="round"/>
</svg>
