<svg width="375" height="89" viewBox="0 0 375 89" fill="none" xmlns="http://www.w3.org/2000/svg">
<rect x="-0.5" y="0.5" width="376" height="89" fill="white" stroke="#E8E9EC"/>
<rect width="48" height="49" transform="translate(295 6)" fill="white"/>
<path d="M305.297 51H306.454L303.91 43.9541H302.728L300.184 51H301.322L301.967 49.0957H304.652L305.297 51ZM303.295 45.126H303.324L304.374 48.2168H302.245L303.295 45.126ZM308.385 48.6318L310.416 51H311.739L309.386 48.2754L311.652 45.8633H310.392L308.385 48.0605H308.346V45.8633H307.291V51H308.346V48.6318H308.385ZM313.592 48.6318L315.624 51H316.947L314.593 48.2754L316.859 45.8633H315.599L313.592 48.0605H313.553V45.8633H312.499V51H313.553V48.6318H313.592ZM319.083 51.0879C319.757 51.0879 320.406 50.7266 320.704 50.1553H320.729V51H321.739V47.46C321.739 46.4297 320.943 45.7705 319.698 45.7705C318.429 45.7705 317.638 46.4541 317.579 47.3818H318.575C318.668 46.9229 319.049 46.6299 319.659 46.6299C320.304 46.6299 320.689 46.9717 320.689 47.543V47.9385L319.283 48.0215C318.062 48.0898 317.374 48.6416 317.374 49.54C317.374 50.4629 318.082 51.0879 319.083 51.0879ZM319.376 50.2529C318.814 50.2529 318.438 49.96 318.438 49.5107C318.438 49.0713 318.795 48.793 319.425 48.749L320.689 48.6709V49.0762C320.689 49.7451 320.113 50.2529 319.376 50.2529ZM323.465 52.9141C324.535 52.9141 325.038 52.5137 325.477 51.2686L327.406 45.8633H326.292L324.989 50.043H324.969L323.67 45.8633H322.528L324.383 51.0049C324.383 51.0098 324.29 51.3125 324.29 51.3223C324.129 51.8496 323.866 52.0547 323.377 52.0547C323.289 52.0547 323.114 52.0547 323.036 52.0352V52.8896C323.114 52.9043 323.382 52.9141 323.465 52.9141ZM331.578 51H332.633V45.8633H331.578V47.9336H329.263V45.8633H328.209V51H329.263V48.7637H331.578V51ZM337.781 45.8633H333.509V46.6982H335.115V51H336.175V46.6982H337.781V45.8633Z" fill="#A5A9B2"/>
<path d="M319.12 25.78C319.05 25.77 318.96 25.77 318.88 25.78C317.12 25.72 315.72 24.28 315.72 22.51C315.72 20.7 317.18 19.23 319 19.23C320.81 19.23 322.28 20.7 322.28 22.51C322.27 24.28 320.88 25.72 319.12 25.78Z" stroke="#A5A9B2" stroke-width="2" stroke-linecap="round" stroke-linejoin="round"/>
<path d="M325.74 32.38C323.96 34.01 321.6 35 319 35C316.4 35 314.04 34.01 312.26 32.38C312.36 31.44 312.96 30.52 314.03 29.8C316.77 27.98 321.25 27.98 323.97 29.8C325.04 30.52 325.64 31.44 325.74 32.38Z" stroke="#A5A9B2" stroke-width="2" stroke-linecap="round" stroke-linejoin="round"/>
<path d="M319 35C324.523 35 329 30.5228 329 25C329 19.4772 324.523 15 319 15C313.477 15 309 19.4772 309 25C309 30.5228 313.477 35 319 35Z" stroke="#A5A9B2" stroke-width="2" stroke-linecap="round" stroke-linejoin="round"/>
<rect width="48" height="49" transform="translate(207 6)" fill="white"/>
<path d="M213.132 47.1084H213.171L216.042 43.9541H217.35L214.25 47.3135L217.638 51H216.208L213.171 47.6943H213.132V51H212.038V43.9541H213.132V47.1084ZM220.307 51.0977C218.837 51.0977 217.87 50.0869 217.87 48.4316C217.87 46.7812 218.847 45.7705 220.307 45.7705C221.772 45.7705 222.743 46.7812 222.743 48.4316C222.743 50.0869 221.777 51.0977 220.307 51.0977ZM220.307 50.2285C221.137 50.2285 221.669 49.5742 221.669 48.4316C221.669 47.2939 221.132 46.6396 220.307 46.6396C219.487 46.6396 218.945 47.2939 218.945 48.4316C218.945 49.5742 219.482 50.2285 220.307 50.2285ZM226.422 45.7803C227.731 45.7803 228.586 46.8057 228.586 48.4316C228.586 50.0576 227.736 51.0879 226.442 51.0879C225.705 51.0879 225.119 50.7266 224.826 50.1553H224.801V52.6992H223.747V45.8633H224.767V46.7471H224.787C225.089 46.1562 225.68 45.7803 226.422 45.7803ZM226.144 50.1943C226.979 50.1943 227.502 49.5107 227.502 48.4316C227.502 47.3574 226.979 46.6689 226.144 46.6689C225.338 46.6689 224.796 47.3721 224.796 48.4316C224.796 49.501 225.338 50.1943 226.144 50.1943ZM231.439 51.0977C230.272 51.0977 229.398 50.5557 229.306 49.5742H230.341C230.443 50.0234 230.834 50.2627 231.43 50.2627C232.108 50.2627 232.489 49.9502 232.489 49.5059C232.489 49.0029 232.138 48.7686 231.43 48.7686H230.688V48.0117H231.425C232.064 48.0117 232.362 47.7627 232.362 47.3037C232.362 46.9033 232.084 46.6104 231.469 46.6104C230.893 46.6104 230.521 46.8594 230.453 47.2646H229.447C229.555 46.3564 230.282 45.7705 231.488 45.7705C232.694 45.7705 233.393 46.3271 233.393 47.1914C233.393 47.7334 233.041 48.1826 232.484 48.3096V48.3486C233.183 48.4951 233.534 48.9199 233.534 49.501C233.534 50.4482 232.714 51.0977 231.439 51.0977ZM235.602 51H234.562V45.8633H235.607V49.457H235.646L238.014 45.8633H239.054V51H238.004V47.3916H237.965L235.602 51ZM243.656 51V48.7637H241.342V51H240.287V45.8633H241.342V47.9336H243.656V45.8633H244.711V51H243.656ZM247.457 51.0879C246.456 51.0879 245.748 50.4629 245.748 49.54C245.748 48.6416 246.437 48.0898 247.657 48.0215L249.064 47.9385V47.543C249.064 46.9717 248.678 46.6299 248.033 46.6299C247.423 46.6299 247.042 46.9229 246.949 47.3818H245.953C246.012 46.4541 246.803 45.7705 248.072 45.7705C249.318 45.7705 250.113 46.4297 250.113 47.46V51H249.103V50.1553H249.078C248.78 50.7266 248.131 51.0879 247.457 51.0879ZM247.75 50.2529C248.487 50.2529 249.064 49.7451 249.064 49.0762V48.6709L247.799 48.749C247.169 48.793 246.813 49.0713 246.813 49.5107C246.813 49.96 247.189 50.2529 247.75 50.2529Z" fill="#A5A9B2"/>
<path d="M227.81 15L224.19 18.63" stroke="#A5A9B2" stroke-width="2" stroke-miterlimit="10" stroke-linecap="round" stroke-linejoin="round"/>
<path d="M234.19 15L237.81 18.63" stroke="#A5A9B2" stroke-width="2" stroke-miterlimit="10" stroke-linecap="round" stroke-linejoin="round"/>
<path d="M221 20.85C221 19 221.99 18.85 223.22 18.85H238.78C240.01 18.85 241 19 241 20.85C241 23 240.01 22.85 238.78 22.85H223.22C221.99 22.85 221 23 221 20.85Z" stroke="#A5A9B2" stroke-width="2"/>
<path d="M228.76 27V30.55" stroke="#A5A9B2" stroke-width="2" stroke-linecap="round"/>
<path d="M233.36 27V30.55" stroke="#A5A9B2" stroke-width="2" stroke-linecap="round"/>
<path d="M222.5 23L223.91 31.64C224.23 33.58 225 35 227.86 35H233.89C237 35 237.46 33.64 237.82 31.76L239.5 23" stroke="#A5A9B2" stroke-width="2" stroke-linecap="round"/>
<rect width="48" height="49" transform="translate(119 6)" fill="white"/>
<path d="M134.89 51H133.801V44.9062H130.276V51H129.177V43.9541H134.89V51ZM138.462 51.0977C136.992 51.0977 136.025 50.0869 136.025 48.4316C136.025 46.7812 137.002 45.7705 138.462 45.7705C139.926 45.7705 140.898 46.7812 140.898 48.4316C140.898 50.0869 139.931 51.0977 138.462 51.0977ZM138.462 50.2285C139.292 50.2285 139.824 49.5742 139.824 48.4316C139.824 47.2939 139.287 46.6396 138.462 46.6396C137.641 46.6396 137.099 47.2939 137.099 48.4316C137.099 49.5742 137.636 50.2285 138.462 50.2285ZM142.941 51H141.901V45.8633H142.946V49.457H142.985L145.354 45.8633H146.394V51H145.344V47.3916H145.305L142.941 51ZM152.036 47.6309H151.03C150.922 47.084 150.512 46.6494 149.824 46.6494C149.008 46.6494 148.471 47.3281 148.471 48.4316C148.471 49.5596 149.018 50.2139 149.833 50.2139C150.483 50.2139 150.908 49.8574 151.035 49.2617H152.045C151.933 50.3555 151.059 51.0977 149.824 51.0977C148.354 51.0977 147.397 50.0918 147.397 48.4316C147.397 46.8008 148.354 45.7705 149.814 45.7705C151.137 45.7705 151.943 46.6201 152.036 47.6309ZM154.074 48.6318H154.035V51H152.98V45.8633H154.035V48.0605H154.074L156.081 45.8633H157.341L155.075 48.2754L157.429 51H156.105L154.074 48.6318Z" fill="#A5A9B2"/>
<path d="M141.5 31C145.642 31 149 27.6421 149 23.5C149 19.3579 145.642 16 141.5 16C137.358 16 134 19.3579 134 23.5C134 27.6421 137.358 31 141.5 31Z" stroke="#A5A9B2" stroke-width="2" stroke-linecap="round" stroke-linejoin="round"/>
<path d="M152 34L149 31" stroke="#A5A9B2" stroke-width="2" stroke-linecap="round" stroke-linejoin="round"/>
<rect width="48" height="49" transform="translate(31 6)" fill="white"/>
<path d="M38.9891 51V44.9062H42.1971V43.9541H37.8904V51H38.9891ZM43.7082 48.6611L43.8449 46.6982H45.4123V51H46.4719V45.8633H42.9123L42.7365 48.6172C42.6779 49.5107 42.5021 50.1064 42.0041 50.1064C41.8723 50.1064 41.7746 50.082 41.7258 50.0674V50.9951C41.7893 51.0195 41.9113 51.0488 42.0822 51.0488C43.2346 51.0488 43.6105 50.1162 43.7082 48.6611ZM49.2086 51.0879C49.8824 51.0879 50.5318 50.7266 50.8297 50.1553H50.8541V51H51.8648V47.46C51.8648 46.4297 51.0689 45.7705 49.8238 45.7705C48.5543 45.7705 47.7633 46.4541 47.7047 47.3818H48.7008C48.7936 46.9229 49.1744 46.6299 49.7848 46.6299C50.4293 46.6299 50.815 46.9717 50.815 47.543V47.9385L49.4088 48.0215C48.1881 48.0898 47.4996 48.6416 47.4996 49.54C47.4996 50.4629 48.2076 51.0879 49.2086 51.0879ZM49.5016 50.2529C48.94 50.2529 48.5641 49.96 48.5641 49.5107C48.5641 49.0713 48.9205 48.793 49.5504 48.749L50.815 48.6709V49.0762C50.815 49.7451 50.2389 50.2529 49.5016 50.2529ZM55.4414 51C56.5547 51 57.248 50.4238 57.248 49.5205C57.248 48.8857 56.8086 48.4268 56.1445 48.3389V48.2998C56.6377 48.207 57.0186 47.7188 57.0186 47.1865C57.0186 46.3662 56.4131 45.8633 55.4121 45.8633H53.0781V51H55.4414ZM54.123 46.6299H55.1924C55.7002 46.6299 55.9785 46.874 55.9785 47.3086C55.9785 47.7676 55.6807 47.9971 55.085 47.9971H54.123V46.6299ZM54.123 48.7344H55.1533C55.8467 48.7344 56.1934 48.9785 56.1934 49.4766C56.1934 49.9697 55.8662 50.2334 55.2754 50.2334H54.123V48.7344ZM61.6547 51H62.7094V45.8633H61.6547V47.9336H59.3402V45.8633H58.2855V51H59.3402V48.7637H61.6547V51ZM65.4559 51.0879C66.1297 51.0879 66.7791 50.7266 67.077 50.1553H67.1014V51H68.1121V47.46C68.1121 46.4297 67.3162 45.7705 66.0711 45.7705C64.8016 45.7705 64.0105 46.4541 63.952 47.3818H64.948C65.0408 46.9229 65.4217 46.6299 66.032 46.6299C66.6766 46.6299 67.0623 46.9717 67.0623 47.543V47.9385L65.6561 48.0215C64.4354 48.0898 63.7469 48.6416 63.7469 49.54C63.7469 50.4629 64.4549 51.0879 65.4559 51.0879ZM65.7488 50.2529C65.1873 50.2529 64.8113 49.96 64.8113 49.5107C64.8113 49.0713 65.1678 48.793 65.7977 48.749L67.0623 48.6709V49.0762C67.0623 49.7451 66.4861 50.2529 65.7488 50.2529ZM72.1965 51H73.2414V45.8633H71.2199C70.0188 45.8633 69.2375 46.5273 69.2375 47.5967C69.2375 48.3145 69.677 48.8467 70.3898 49.0566L68.9885 51H70.1896L71.4299 49.2373H72.1965V51ZM71.2736 48.4268C70.6779 48.4268 70.2873 48.0801 70.2873 47.5918C70.2873 47.0352 70.673 46.6934 71.2736 46.6934H72.1965V48.4268H71.2736Z" fill="#3364E0"/>
<path d="M55 31V28" stroke="#3364E0" stroke-width="2" stroke-linecap="round" stroke-linejoin="round"/>
<path d="M53.07 15.82L46.14 21.37C45.36 21.99 44.86 23.3 45.03 24.28L46.36 32.24C46.6 33.66 47.96 34.81 49.4 34.81H60.6C62.03 34.81 63.4 33.65 63.64 32.24L64.97 24.28C65.13 23.3 64.63 21.99 63.86 21.37L56.93 15.83C55.86 14.97 54.13 14.97 53.07 15.82Z" stroke="#3364E0" stroke-width="2" stroke-linecap="round" stroke-linejoin="round"/>
<rect width="375" height="19.4013" transform="translate(0 69.5988)" fill="white"/>
<rect x="121" y="75.5988" width="134" height="5" rx="2.5" fill="black"/>
</svg>
