<svg width="48" height="49" viewBox="0 0 48 49" fill="none" xmlns="http://www.w3.org/2000/svg">
<rect width="48" height="49" fill="white"/>
<path d="M10.2967 45H11.4539L8.90996 37.9541H7.72832L5.18438 45H6.32207L6.9666 43.0957H9.65215L10.2967 45ZM8.29473 39.126H8.32402L9.37383 42.2168H7.24492L8.29473 39.126ZM13.385 42.6318L15.4162 45H16.7395L14.3859 42.2754L16.6516 39.8633H15.3918L13.385 42.0605H13.3459V39.8633H12.2912V45H13.3459V42.6318H13.385ZM18.5924 42.6318L20.6236 45H21.9469L19.5934 42.2754L21.859 39.8633H20.5992L18.5924 42.0605H18.5533V39.8633H17.4986V45H18.5533V42.6318H18.5924ZM24.083 45.0879C24.7568 45.0879 25.4062 44.7266 25.7041 44.1553H25.7285V45H26.7393V41.46C26.7393 40.4297 25.9434 39.7705 24.6982 39.7705C23.4287 39.7705 22.6377 40.4541 22.5791 41.3818H23.5752C23.668 40.9229 24.0488 40.6299 24.6592 40.6299C25.3037 40.6299 25.6895 40.9717 25.6895 41.543V41.9385L24.2832 42.0215C23.0625 42.0898 22.374 42.6416 22.374 43.54C22.374 44.4629 23.082 45.0879 24.083 45.0879ZM24.376 44.2529C23.8145 44.2529 23.4385 43.96 23.4385 43.5107C23.4385 43.0713 23.7949 42.793 24.4248 42.749L25.6895 42.6709V43.0762C25.6895 43.7451 25.1133 44.2529 24.376 44.2529ZM28.4652 46.9141C29.5346 46.9141 30.0375 46.5137 30.477 45.2686L32.4057 39.8633H31.2924L29.9887 44.043H29.9691L28.6703 39.8633H27.5277L29.3832 45.0049C29.3832 45.0098 29.2904 45.3125 29.2904 45.3223C29.1293 45.8496 28.8656 46.0547 28.3773 46.0547C28.2895 46.0547 28.1137 46.0547 28.0355 46.0352V46.8896C28.1137 46.9043 28.3822 46.9141 28.4652 46.9141ZM36.5779 45H37.6326V39.8633H36.5779V41.9336H34.2635V39.8633H33.2088V45H34.2635V42.7637H36.5779V45ZM42.7814 39.8633H38.509V40.6982H40.1154V45H41.175V40.6982H42.7814V39.8633Z" fill="#A5A9B2"/>
<path d="M24.12 19.78C24.05 19.77 23.96 19.77 23.88 19.78C22.12 19.72 20.72 18.28 20.72 16.51C20.72 14.7 22.18 13.23 24 13.23C25.81 13.23 27.28 14.7 27.28 16.51C27.27 18.28 25.88 19.72 24.12 19.78Z" stroke="#A5A9B2" stroke-width="2" stroke-linecap="round" stroke-linejoin="round"/>
<path d="M30.74 26.38C28.96 28.01 26.6 29 24 29C21.4 29 19.04 28.01 17.26 26.38C17.36 25.44 17.96 24.52 19.03 23.8C21.77 21.98 26.25 21.98 28.97 23.8C30.04 24.52 30.64 25.44 30.74 26.38Z" stroke="#A5A9B2" stroke-width="2" stroke-linecap="round" stroke-linejoin="round"/>
<path d="M24 29C29.5228 29 34 24.5228 34 19C34 13.4772 29.5228 9 24 9C18.4772 9 14 13.4772 14 19C14 24.5228 18.4772 29 24 29Z" stroke="#A5A9B2" stroke-width="2" stroke-linecap="round" stroke-linejoin="round"/>
</svg>
