<svg width="48" height="49" viewBox="0 0 48 49" fill="none" xmlns="http://www.w3.org/2000/svg">
<rect width="48" height="49" fill="white"/>
<path d="M15.8898 45H14.801V38.9062H11.2756V45H10.177V37.9541H15.8898V45ZM19.4615 45.0977C17.9918 45.0977 17.025 44.0869 17.025 42.4316C17.025 40.7812 18.0016 39.7705 19.4615 39.7705C20.9264 39.7705 21.898 40.7812 21.898 42.4316C21.898 44.0869 20.9313 45.0977 19.4615 45.0977ZM19.4615 44.2285C20.2916 44.2285 20.8238 43.5742 20.8238 42.4316C20.8238 41.2939 20.2867 40.6396 19.4615 40.6396C18.6412 40.6396 18.0992 41.2939 18.0992 42.4316C18.0992 43.5742 18.6363 44.2285 19.4615 44.2285ZM23.9414 45H22.9014V39.8633H23.9463V43.457H23.9854L26.3535 39.8633H27.3936V45H26.3438V41.3916H26.3047L23.9414 45ZM33.0355 41.6309H32.0297C31.9223 41.084 31.5121 40.6494 30.8236 40.6494C30.0082 40.6494 29.4711 41.3281 29.4711 42.4316C29.4711 43.5596 30.018 44.2139 30.8334 44.2139C31.4828 44.2139 31.9076 43.8574 32.0346 43.2617H33.0453C32.933 44.3555 32.059 45.0977 30.8236 45.0977C29.3539 45.0977 28.3969 44.0918 28.3969 42.4316C28.3969 40.8008 29.3539 39.7705 30.8139 39.7705C32.1371 39.7705 32.9428 40.6201 33.0355 41.6309ZM35.074 42.6318H35.035V45H33.9803V39.8633H35.035V42.0605H35.074L37.0809 39.8633H38.3406L36.075 42.2754L38.4285 45H37.1053L35.074 42.6318Z" fill="#A5A9B2"/>
<path d="M22.5 25C26.6421 25 30 21.6421 30 17.5C30 13.3579 26.6421 10 22.5 10C18.3579 10 15 13.3579 15 17.5C15 21.6421 18.3579 25 22.5 25Z" stroke="#A5A9B2" stroke-width="2" stroke-linecap="round" stroke-linejoin="round"/>
<path d="M33 28L30 25" stroke="#A5A9B2" stroke-width="2" stroke-linecap="round" stroke-linejoin="round"/>
</svg>
