<?xml version="1.0" standalone="no"?>
<!DOCTYPE svg PUBLIC "-//W3C//DTD SVG 20010904//EN"
 "http://www.w3.org/TR/2001/REC-SVG-20010904/DTD/svg10.dtd">
<svg version="1.0" xmlns="http://www.w3.org/2000/svg"
 width="640.000000pt" height="640.000000pt" viewBox="0 0 640.000000 640.000000"
 preserveAspectRatio="xMidYMid meet">
<metadata>
Created by potrace 1.16, written by Peter Selinger 2001-2019
</metadata>
<g transform="translate(0.000000,640.000000) scale(0.100000,-0.100000)"
fill="#000000" stroke="none">
<path d="M3225 6389 c-22 -4 -80 -7 -130 -6 l-89 1 -8 -34 c-11 -50 -4 -62 28
-50 22 9 69 11 199 11 145 -1 240 6 238 17 -4 15 3 15 28 2 10 -6 39 -14 65
-19 39 -8 48 -6 64 11 12 13 27 19 38 16 14 -4 23 1 31 18 9 20 18 24 56 24
25 0 45 5 45 10 0 7 -53 10 -152 8 -148 -3 -153 -4 -163 -25 -13 -31 -52 -30
-66 1 -10 22 -17 24 -78 23 -36 0 -84 -4 -106 -8z"/>
<path d="M5111 6386 c-7 -8 -20 -12 -30 -9 -21 5 -48 -22 -31 -32 5 -3 10 -15
10 -26 0 -15 5 -19 19 -14 12 3 21 0 25 -10 3 -8 15 -15 27 -15 20 0 21 -1 5
-24 -20 -32 -5 -42 29 -20 30 19 29 18 9 39 -15 15 -15 17 5 22 22 6 28 19 11
25 -6 2 -6 8 0 18 8 13 10 12 10 -2 0 -11 8 -18 20 -18 25 0 25 6 -2 47 -19
27 -29 33 -59 33 -20 0 -42 -6 -48 -14z"/>
<path d="M5450 6390 c-11 -8 -8 -9 12 -4 20 4 29 2 34 -10 3 -9 14 -16 23 -16
9 0 22 -5 28 -11 16 -16 96 -19 106 -5 5 8 11 6 18 -6 5 -10 15 -18 22 -18 8
0 6 4 -3 11 -12 8 -12 10 -1 7 16 -4 20 -25 24 -102 2 -54 28 -85 48 -56 8 11
12 12 16 3 2 -7 11 -13 18 -13 23 0 28 21 9 35 -17 13 -17 14 -2 15 9 0 19 -6
22 -12 3 -9 9 -7 18 7 7 11 13 22 14 25 0 3 4 13 8 23 5 10 3 24 -5 33 -17 20
-19 57 -5 66 6 5 -5 5 -24 2 -26 -4 -31 -3 -20 5 8 6 23 11 32 11 9 0 19 4 23
10 3 5 -54 9 -151 9 -126 0 -154 -2 -145 -13 8 -10 4 -12 -19 -8 -17 2 -33 8
-36 13 -7 12 -45 11 -64 -1z"/>
<path d="M6030 6395 c0 -3 7 -16 15 -28 8 -13 16 -34 19 -47 2 -14 8 -24 14
-23 6 1 13 -11 17 -27 4 -17 11 -30 16 -30 5 0 9 -18 9 -39 0 -48 8 -71 25
-71 8 0 16 -19 20 -47 13 -92 27 -142 37 -140 18 3 27 -51 36 -204 5 -79 10
-118 11 -86 1 55 14 75 25 40 3 -10 7 -105 8 -212 2 -147 0 -195 -10 -199 -7
-2 -12 -21 -12 -43 0 -21 -4 -39 -10 -39 -6 0 -10 -26 -10 -59 0 -40 -5 -63
-15 -71 -8 -7 -15 -16 -15 -21 0 -5 7 -9 15 -9 8 0 15 -7 15 -15 0 -8 -4 -15
-9 -15 -11 0 -26 -39 -23 -57 1 -6 -10 -21 -24 -32 l-27 -21 6 -126 6 -126 35
-34 c20 -19 36 -45 36 -57 0 -12 9 -28 20 -35 14 -9 20 -9 20 -1 0 8 5 7 16
-2 13 -10 17 -10 24 1 7 11 11 11 24 1 18 -15 21 -41 5 -41 -5 0 -7 -5 -3 -11
5 -8 9 -8 14 1 5 9 9 9 14 1 4 -6 11 -11 17 -11 5 0 9 371 9 970 l0 970 -185
0 c-102 0 -185 -2 -185 -5z"/>
<path d="M2160 6369 c0 -14 -138 -22 -375 -24 -199 -1 -265 -5 -325 -19 -55
-13 -92 -15 -140 -10 -102 11 -359 5 -384 -8 -14 -8 -71 -12 -171 -11 -87 1
-155 -3 -162 -8 -6 -6 -11 -29 -11 -52 1 -23 3 -34 6 -24 2 9 8 15 13 11 6 -3
16 0 24 6 11 9 15 9 15 1 0 -9 30 -10 113 -6 61 3 122 8 135 11 12 2 31 0 42
-6 13 -7 21 -7 25 1 4 6 19 7 35 4 16 -4 39 -1 51 5 17 9 23 9 29 0 5 -8 15
-10 26 -5 11 4 73 9 139 11 66 2 165 5 220 7 61 3 105 0 114 -7 10 -7 16 -6
26 7 13 19 35 23 35 7 0 -5 9 -10 20 -10 11 0 20 4 20 10 0 5 31 7 74 4 47 -3
77 -1 81 6 5 8 11 8 20 0 8 -7 18 -9 22 -7 5 3 49 6 98 6 185 2 257 6 279 16
13 6 22 3 30 -7 10 -14 14 -14 36 4 20 16 26 17 35 6 10 -13 45 -13 45 0 0 4
63 6 140 5 151 -2 164 2 143 49 -8 19 -18 21 -168 23 -88 2 -204 4 -258 6 -53
2 -97 1 -97 -2z"/>
<path d="M3963 6258 c-2 -5 -19 -8 -37 -8 -18 0 -41 -7 -52 -15 -10 -8 -36
-15 -56 -15 -41 0 -51 -15 -17 -25 41 -13 -2 -35 -77 -40 -72 -5 -108 1 -99
15 3 5 -4 14 -16 20 -15 8 -19 9 -15 1 4 -6 0 -11 -9 -11 -9 0 -13 5 -10 10 8
12 -9 13 -33 1 -59 -30 -112 -46 -112 -33 0 5 10 13 23 17 14 4 17 8 9 12 -21
8 -62 -6 -62 -22 0 -21 -19 -28 -38 -14 -9 7 -14 9 -10 5 4 -5 0 -15 -10 -23
-16 -12 -16 -13 1 -7 9 3 17 3 17 0 0 -8 -52 -30 -64 -27 -4 1 -13 -2 -20 -7
-6 -5 -29 -15 -51 -22 -22 -7 -50 -20 -63 -28 -12 -8 -25 -12 -28 -9 -8 8 -84
-32 -84 -44 0 -5 -10 -9 -23 -9 -13 0 -27 -4 -32 -8 -6 -4 -37 -19 -70 -32
-33 -13 -64 -28 -70 -32 -5 -5 -32 -23 -60 -40 -27 -18 -60 -43 -72 -56 -23
-23 -31 -62 -13 -62 6 0 10 -5 10 -11 0 -5 -4 -8 -9 -5 -5 3 -26 -11 -47 -32
-47 -46 -114 -97 -114 -87 0 4 -6 3 -13 -4 -10 -8 -17 -7 -26 2 -9 9 -14 9
-20 -2 -5 -8 -7 -20 -4 -27 2 -7 0 -21 -6 -31 -10 -17 -10 -17 -12 2 -1 11 -3
25 -4 30 -2 6 -3 16 -4 24 -1 8 -7 11 -18 7 -10 -4 -14 -4 -11 -1 4 4 -4 26
-18 50 -13 24 -24 56 -24 72 0 22 -2 25 -10 13 -5 -8 -10 -10 -10 -5 0 15 44
99 53 104 5 2 24 17 43 33 28 24 40 29 67 25 64 -11 92 -20 102 -32 10 -12 17
-15 36 -15 5 0 7 -4 4 -10 -3 -5 -2 -10 3 -10 10 0 23 109 15 123 -2 4 -23 7
-46 6 -23 0 -36 -3 -29 -6 6 -2 12 -9 12 -14 0 -6 -7 -6 -19 0 -24 13 -303 14
-596 1 -126 -5 -372 -14 -545 -20 -173 -6 -362 -13 -420 -16 -173 -9 -383 -13
-415 -8 l-30 5 3 86 c3 68 1 84 -10 78 -10 -6 -11 -5 0 6 6 7 11 35 11 63 -1
28 -3 43 -6 33 -2 -9 -8 -15 -12 -13 -4 3 -5 -9 -3 -25 3 -17 0 -40 -6 -52 -6
-12 -13 -47 -15 -77 -2 -30 -8 -64 -12 -75 -5 -16 -5 -17 4 -5 9 12 11 11 11
-7 0 -13 -6 -23 -14 -23 -15 0 -28 -27 -33 -65 -8 -69 -13 -95 -23 -135 -22
-86 -23 -92 -12 -99 5 -3 8 -19 5 -34 -4 -18 -8 -24 -13 -17 -8 13 -36 -137
-46 -247 -5 -52 -11 -73 -20 -73 -10 0 -14 -14 -14 -47 0 -27 -5 -67 -10 -90
-6 -23 -11 -72 -13 -108 -2 -41 -9 -70 -17 -75 -13 -8 -30 -158 -38 -347 -1
-22 -7 -33 -17 -33 -15 0 -16 -4 -20 -130 -1 -25 -5 -61 -10 -80 -4 -19 -9
-59 -10 -90 -1 -30 -6 -100 -11 -155 -8 -95 -9 -97 -14 -45 -4 39 -8 4 -13
-115 -5 -93 -12 -211 -18 -262 -5 -51 -9 -119 -9 -153 0 -53 -2 -60 -20 -60
-22 0 -20 32 -24 -390 -1 -89 -6 -153 -13 -165 -6 -11 -15 -53 -18 -93 -4 -40
-12 -72 -16 -72 -5 0 -9 -18 -9 -40 0 -22 5 -40 10 -40 6 0 10 18 10 40 0 22
5 40 10 40 16 0 12 -72 -6 -84 -10 -8 -17 -35 -21 -81 -3 -39 -9 -71 -14 -73
-5 -2 -9 -32 -9 -66 0 -35 -3 -66 -7 -70 -4 -4 -9 -28 -10 -54 -2 -25 -7 -49
-12 -52 -5 -3 -11 -48 -15 -100 -12 -173 -18 -220 -27 -220 -5 0 -9 -389 -9
-960 l0 -960 305 0 305 0 2 178 c1 97 1 263 -1 369 -2 178 -1 192 17 210 11
10 20 30 20 46 -1 30 -14 37 -21 10 -9 -40 -19 101 -13 184 4 48 7 105 6 126
0 21 5 35 10 32 5 -3 13 9 19 27 5 18 14 48 20 66 6 19 6 30 0 27 -5 -4 -9
-15 -9 -25 0 -10 -6 -25 -13 -32 -7 -7 -17 -22 -21 -33 -6 -14 -10 -16 -13 -7
-3 8 11 48 30 90 45 98 53 126 36 120 -14 -5 -24 -20 -41 -63 l-11 -30 -7 30
c-14 58 -10 101 16 153 30 61 28 128 -5 173 -21 28 -21 33 -20 831 0 442 4
821 8 843 7 31 17 34 12 3 0 -4 6 -5 14 -2 9 4 15 0 15 -10 0 -11 9 -16 30
-16 17 0 30 -4 30 -10 0 -19 54 -10 78 13 14 12 22 16 18 10 -16 -28 9 -10 65
47 34 35 67 60 79 60 11 0 46 -9 77 -20 65 -23 83 -25 83 -9 0 13 -74 45 -126
54 -31 5 -52 18 -85 51 -24 24 -50 44 -59 44 -9 0 -33 9 -55 20 -22 11 -44 20
-51 20 -6 0 -37 12 -68 26 -49 22 -56 29 -56 55 0 31 14 39 24 14 3 -8 13 -15
22 -15 9 0 28 -6 42 -14 34 -18 232 -90 292 -107 25 -7 47 -16 50 -19 3 -3 24
-14 48 -24 42 -19 43 -19 57 0 25 33 13 46 -75 76 -108 37 -104 36 -111 34 -4
0 -15 6 -25 15 -11 9 -37 20 -59 24 -22 4 -49 12 -60 17 -11 6 -34 12 -52 14
-18 2 -42 10 -55 18 -16 10 -28 12 -38 6 -22 -14 -33 -12 -27 4 3 8 -2 16 -12
19 -16 4 -19 25 -25 207 -8 218 -5 237 37 211 13 -8 54 -15 100 -16 43 -1 73
1 66 5 -6 4 -8 13 -4 20 14 23 -20 30 -107 24 l-88 -7 0 47 0 46 73 0 c39 0
90 -5 112 -11 60 -17 89 -14 129 11 36 21 36 23 21 46 -8 13 -15 26 -15 30 0
3 33 3 74 -1 50 -5 76 -4 80 4 13 20 -47 33 -154 33 -58 0 -116 5 -130 11 -24
9 -24 10 20 23 25 8 56 26 69 41 23 27 23 27 3 42 -11 9 -28 21 -38 28 -18 11
-18 11 1 18 11 3 27 11 35 16 8 5 22 12 30 15 48 19 59 28 56 48 -2 16 -11 21
-47 23 -24 1 -55 4 -69 7 -37 7 -58 -8 -41 -28 8 -9 22 -16 32 -16 10 0 21 -4
24 -10 6 -9 -38 -15 -92 -12 -13 0 -23 -4 -23 -9 0 -6 -9 -8 -19 -4 -14 4 -21
0 -26 -16 -7 -21 7 -39 31 -39 6 0 23 -9 37 -21 l26 -20 -22 -35 c-22 -35 -22
-35 -77 -28 -30 4 -65 8 -78 8 -20 1 -22 6 -23 51 0 28 -1 86 -2 130 -2 75 -1
80 18 78 56 -7 150 -3 153 7 14 40 122 64 165 35 17 -10 31 -13 47 -7 l22 8
-26 17 c-14 10 -33 31 -41 48 -15 27 -21 30 -58 28 -23 -1 -62 1 -87 5 -25 4
-78 3 -117 -2 -40 -4 -73 -6 -73 -3 -1 3 -3 150 -6 327 l-6 321 24 6 c12 4 82
7 154 7 95 0 135 4 149 14 11 8 24 12 30 10 18 -7 48 33 55 74 3 21 11 36 18
34 7 -1 12 2 12 7 0 5 14 9 30 9 18 -1 30 -6 30 -15 0 -7 6 -16 14 -19 8 -3
17 -20 20 -39 11 -59 40 -69 180 -60 67 4 135 13 152 20 21 9 83 13 190 13 88
0 171 5 186 11 42 16 23 43 -47 66 -15 5 -16 8 -6 14 10 6 11 18 6 37 -4 16
-9 48 -12 71 -3 29 -9 41 -17 36 -6 -4 -4 2 4 12 9 11 10 16 3 11 -20 -12 -15
6 10 35 27 32 74 49 104 38 12 -4 50 -10 85 -13 82 -6 120 -16 134 -34 12 -16
12 -97 1 -109 -11 -10 24 -43 46 -43 11 0 17 -3 14 -7 -4 -3 -2 -13 5 -20 9
-11 9 -16 -2 -23 -8 -5 -19 -6 -25 -2 -5 3 -4 -2 4 -12 8 -10 23 -15 33 -13
10 3 18 1 18 -4 0 -16 39 -10 49 9 10 15 11 15 17 -6 4 -14 12 -21 20 -18 8 3
14 2 14 -3 0 -5 10 -12 23 -16 16 -5 18 -8 7 -12 -8 -4 -20 -11 -25 -17 -14
-14 -35 -73 -28 -79 2 -3 -5 -10 -16 -17 -12 -6 -21 -16 -21 -22 0 -6 -20 -29
-44 -52 -25 -22 -54 -59 -66 -81 -20 -37 -23 -26 -5 19 7 16 5 17 -15 11 -27
-8 -59 -43 -60 -63 0 -7 -13 -24 -30 -38 -17 -15 -27 -31 -23 -40 3 -10 0 -12
-10 -8 -19 7 -57 -69 -57 -114 0 -17 -5 -34 -11 -38 -15 -9 -49 -91 -49 -118
0 -13 -3 -26 -7 -30 -9 -8 -33 -77 -33 -94 0 -24 18 -2 30 36 7 20 18 51 26
69 8 17 14 35 14 40 0 14 50 83 60 83 6 0 3 -17 -6 -37 -9 -21 -19 -47 -22
-58 -3 -11 -10 -23 -16 -27 -8 -6 -6 -11 3 -17 11 -7 12 -13 4 -23 -6 -7 -21
-56 -32 -108 -33 -147 -65 -262 -84 -297 -10 -18 -16 -36 -15 -40 5 -18 -13
-91 -30 -127 -11 -22 -17 -48 -14 -58 2 -11 0 -29 -6 -41 -22 -44 -52 -151
-52 -186 0 -28 -3 -33 -11 -21 -8 11 -9 1 -6 -38 2 -30 1 -48 -4 -41 -12 20
-22 4 -24 -39 -3 -45 -21 -137 -42 -212 -9 -30 -18 -77 -20 -105 -2 -27 -8
-51 -14 -53 -5 -2 -9 -18 -9 -34 0 -38 9 -30 33 25 l17 42 -6 -42 c-3 -23 -1
-50 5 -60 10 -17 10 -17 11 0 0 9 5 17 10 17 11 0 14 -23 3 -34 -4 -3 -8 -28
-10 -54 -1 -26 -8 -51 -16 -57 -13 -10 -13 -21 -3 -122 3 -28 1 -53 -4 -55 -5
-2 -10 -28 -12 -59 -2 -43 -6 -55 -17 -51 -10 4 -12 -2 -6 -29 4 -19 12 -37
18 -40 5 -4 1 -9 -9 -13 -16 -5 -19 -17 -21 -83 -2 -58 0 -74 8 -63 9 13 10
12 5 -3 -3 -10 -6 -25 -6 -33 0 -8 -6 -11 -15 -8 -18 7 -20 -17 -4 -33 8 -8 5
-15 -8 -24 -18 -14 -47 -88 -38 -98 8 -7 47 32 56 57 5 13 17 22 30 22 21 0
21 -1 6 -18 -9 -10 -23 -33 -32 -52 -8 -19 -19 -42 -24 -50 -25 -41 -51 -103
-51 -120 0 -11 -4 -20 -9 -20 -13 0 -24 -51 -12 -63 6 -6 6 -19 1 -32 -5 -13
-6 -26 -2 -30 4 -4 -1 -13 -12 -20 -11 -9 -17 -22 -13 -34 3 -13 1 -18 -8 -15
-19 8 -14 -69 5 -78 12 -5 10 -8 -8 -14 -25 -7 -27 -16 -12 -45 7 -13 7 -19 0
-19 -5 0 -10 -5 -10 -11 0 -27 24 2 42 49 11 29 23 52 28 52 10 0 3 -27 -11
-45 -4 -5 -10 -27 -14 -48 -4 -22 -18 -59 -31 -83 -21 -39 -39 -112 -49 -194
-1 -14 -6 -34 -10 -45 -5 -16 -5 -17 4 -5 9 13 11 13 12 0 3 -33 -4 -65 -15
-73 -8 -5 -8 -9 2 -15 10 -7 9 -14 -2 -38 -8 -16 -17 -47 -20 -69 l-5 -40 11
43 c6 23 16 42 23 42 7 0 16 8 19 17 6 14 9 15 15 4 6 -8 11 -9 15 -3 3 6 2
13 -4 17 -5 3 -10 31 -10 61 0 34 4 53 10 49 6 -3 10 -25 11 -48 l0 -42 22 48
c12 27 25 45 29 41 5 -4 8 -2 8 4 0 7 -7 12 -15 12 -9 0 -12 6 -9 15 8 21 21
19 27 -5 8 -30 -11 -90 -28 -90 -8 0 -15 -7 -15 -16 0 -14 2 -15 17 -3 15 13
16 11 9 -16 -4 -16 -7 -37 -7 -45 0 -8 -4 -24 -8 -35 -12 -30 -28 -97 -56
-235 -15 -69 -32 -150 -40 -180 -8 -30 -19 -93 -26 -140 -6 -47 -14 -89 -19
-95 -4 -5 -10 -28 -13 -50 -3 -22 -8 -49 -10 -60 -18 -79 -36 -197 -35 -235 0
-25 0 -90 -1 -145 -2 -55 -2 -155 -2 -222 l1 -123 804 0 c756 0 804 1 811 18
6 16 7 16 16 -1 6 -9 19 -17 29 -17 16 0 20 7 20 38 0 23 3 32 9 24 6 -10 10
-10 20 2 9 11 9 15 -1 19 -7 2 -9 8 -5 13 5 5 15 0 23 -11 8 -11 22 -20 32
-20 13 0 16 -8 14 -32 -2 -31 -1 -32 23 -21 14 6 25 17 25 25 0 19 17 16 24
-4 6 -15 8 -15 17 -3 8 13 12 12 28 -7 21 -25 41 -30 41 -10 0 8 16 12 45 12
25 0 45 -3 45 -7 0 -4 20 -5 45 -3 26 3 45 0 45 -5 0 -6 39 -10 94 -10 109 0
113 4 100 86 -5 33 -3 45 4 40 17 -10 34 28 19 44 -9 10 -9 14 1 17 6 3 12 17
12 31 0 15 7 35 15 46 14 19 11 72 -6 90 -5 6 -2 17 6 26 14 15 13 19 -6 36
-12 10 -24 18 -28 17 -14 -4 -1 50 16 66 28 25 39 46 70 121 3 8 7 26 9 39 2
13 9 28 16 33 10 6 10 10 -2 18 -10 6 -11 10 -2 10 6 0 12 7 12 16 0 10 -6 14
-14 11 -23 -9 -13 24 17 57 24 26 27 37 23 68 -5 32 -2 39 28 65 28 25 31 31
18 40 -14 8 -14 12 0 32 9 13 14 29 11 37 -2 7 10 28 29 46 18 18 31 34 29 37
-1 2 16 16 39 30 l42 24 -7 -24 -7 -24 24 23 c13 12 34 22 46 22 23 0 32 20
10 20 -7 0 -5 5 5 11 25 14 57 2 57 -23 0 -11 5 -18 13 -16 6 3 12 10 12 16 0
5 3 14 7 17 10 10 -1 -44 -13 -67 -5 -10 -7 -23 -4 -28 3 -6 2 -10 -4 -10 -6
0 -8 -6 -5 -14 3 -8 1 -17 -4 -20 -5 -3 -16 -35 -23 -71 -7 -36 -16 -65 -21
-65 -4 0 -5 -7 -2 -15 4 -8 -1 -26 -10 -40 -9 -13 -16 -30 -16 -36 0 -13 -23
-67 -61 -144 -10 -22 -19 -45 -19 -52 0 -7 -11 -29 -25 -49 -14 -20 -25 -45
-25 -55 0 -10 -6 -22 -14 -26 -8 -4 -18 -24 -24 -43 -16 -55 -36 -104 -45
-111 -4 -3 -10 -18 -13 -33 -2 -15 -12 -47 -21 -69 -8 -23 -18 -61 -20 -85 -3
-27 -12 -47 -25 -57 -16 -11 -19 -21 -15 -44 4 -17 2 -33 -3 -36 -6 -3 -10
-13 -10 -21 0 -10 13 -14 50 -14 29 0 50 5 50 11 0 5 5 7 10 4 6 -3 13 1 16 9
9 23 24 20 24 -4 0 -19 7 -20 93 -20 67 1 87 3 75 11 -24 14 -23 34 3 45 15 7
22 21 25 48 2 21 8 43 13 50 5 6 9 22 8 36 0 14 2 35 7 48 6 18 4 22 -13 22
-31 0 -53 28 -46 60 4 18 1 31 -10 40 -19 16 -19 27 0 46 13 14 15 13 15 -5 0
-31 19 -35 30 -6 7 19 6 32 -5 49 -14 21 -17 51 -14 121 1 11 3 14 6 8 3 -7
13 -13 24 -13 10 0 19 -7 19 -15 0 -8 6 -15 14 -15 17 0 29 -41 16 -54 -6 -6
-10 -16 -10 -23 0 -24 18 -13 34 22 9 19 20 35 23 35 9 0 -7 -83 -19 -97 -7
-8 -7 -13 0 -13 5 0 17 11 26 25 21 32 39 24 26 -11 -15 -37 -11 -43 6 -11 34
63 51 8 18 -58 -22 -42 -6 -85 29 -78 14 3 31 -2 41 -12 24 -25 127 -33 145
-11 7 9 19 16 26 16 7 0 15 17 19 39 3 21 13 44 21 51 8 7 15 21 15 31 0 10 8
23 19 28 10 6 26 29 35 51 9 22 20 40 26 40 5 0 10 7 10 15 0 9 7 18 15 21 8
4 15 12 15 19 0 16 30 29 41 18 4 -4 15 -21 23 -38 l16 -30 0 26 c0 28 -20 91
-46 147 -19 40 -13 49 22 33 19 -8 30 -9 39 -1 10 8 15 8 20 -1 8 -11 35 51
35 79 0 8 8 26 19 40 10 15 21 44 25 64 6 31 4 37 -8 32 -11 -4 -13 0 -9 17 5
19 3 21 -15 17 -23 -6 -32 17 -10 24 6 2 8 10 4 16 -16 26 -25 9 -24 -48 1
-60 -12 -90 -38 -90 -8 0 -11 -6 -7 -16 5 -13 2 -15 -18 -9 -39 12 -40 19 -10
50 15 17 26 35 24 42 -2 6 4 28 13 50 9 21 16 43 15 49 0 6 5 26 13 44 13 31
14 32 20 12 13 -41 21 -22 21 53 0 41 -3 75 -7 75 -5 0 -8 -22 -8 -50 0 -32
-4 -49 -11 -47 -6 1 -16 -11 -22 -28 -5 -16 -15 -33 -21 -37 -13 -9 -28 0 -21
13 4 5 -1 9 -9 9 -9 0 -16 6 -16 13 0 8 -3 8 -9 -2 -9 -15 -54 -11 -134 10
-34 9 -38 13 -33 35 7 27 -2 30 -29 10 -15 -11 -22 -11 -44 0 -14 8 -32 14
-38 14 -23 0 -14 36 12 50 14 7 25 20 25 28 0 12 -4 11 -21 -4 l-22 -19 7 40
c10 55 16 75 24 75 4 0 8 23 9 51 1 50 25 95 44 83 5 -3 9 2 9 11 0 9 5 13 11
10 7 -5 8 5 4 29 -6 27 -2 44 15 71 21 34 24 35 40 20 16 -15 18 -14 24 0 8
21 8 25 -1 24 -25 -4 -53 3 -53 12 0 6 7 8 16 5 19 -7 50 19 34 29 -13 8 -4
41 22 78 11 15 18 32 16 38 -2 6 -15 -5 -28 -24 -37 -51 -105 -122 -200 -207
-121 -108 -250 -241 -251 -259 0 -9 -3 -11 -5 -5 -7 16 -52 -6 -57 -27 -2 -9
-18 -19 -36 -22 -20 -4 -31 -12 -31 -24 -1 -16 -2 -16 -18 2 -9 11 -30 21 -47
22 -16 1 -24 0 -17 -3 6 -3 10 -10 6 -15 -8 -13 -44 -11 -44 2 0 7 -7 8 -17 4
-10 -4 -38 -9 -63 -11 -25 -2 -51 -7 -59 -10 -15 -5 -154 13 -181 24 -8 3 -19
7 -25 8 -5 1 -12 3 -15 4 -16 7 -71 6 -76 -2 -3 -5 -12 -4 -20 3 -8 6 -14 8
-14 4 0 -4 -11 0 -24 9 -16 10 -27 12 -31 5 -5 -7 -11 -6 -21 2 -10 8 -14 8
-14 1 0 -14 -28 -5 -53 17 -11 9 -35 15 -61 14 -37 -2 -45 2 -54 22 -7 15 -17
22 -26 19 -7 -3 -25 6 -39 20 -15 14 -31 26 -38 26 -6 0 -18 8 -25 17 -7 10
-16 18 -21 18 -24 1 -73 32 -73 46 0 10 -7 16 -17 15 -12 0 -19 7 -21 21 -2
15 -13 25 -28 29 -13 3 -24 10 -24 15 0 5 -7 17 -16 27 -32 36 -64 94 -58 104
4 6 2 8 -3 5 -6 -4 -13 5 -15 21 -7 38 -12 56 -18 62 -30 29 -42 66 -35 116 4
38 3 54 -5 54 -7 0 -9 9 -6 23 3 12 3 16 0 9 -9 -21 -32 5 -40 44 -3 18 -12
38 -20 45 -8 6 -14 20 -14 30 0 11 -4 19 -10 19 -5 0 -10 8 -10 18 0 9 -9 32
-20 49 -11 18 -17 39 -14 48 4 10 0 15 -15 15 -16 0 -21 6 -21 25 0 14 -4 25
-10 25 -5 0 -10 7 -10 15 0 8 -4 15 -10 15 -5 0 -10 11 -10 24 0 14 -4 28 -10
31 -5 3 -7 21 -4 40 3 19 0 36 -6 40 -7 4 -20 27 -31 52 -10 24 -23 41 -29 38
-5 -3 -10 1 -10 9 0 9 -4 16 -9 16 -5 0 -11 9 -14 20 -5 20 -27 28 -27 10 0
-5 -5 -10 -10 -10 -6 0 -8 10 -4 24 4 16 1 25 -11 30 -9 3 -13 10 -10 16 3 5
0 10 -8 10 -8 0 -18 7 -21 16 -8 21 -8 26 3 20 5 -4 6 9 1 29 -4 19 -6 36 -3
38 2 3 5 15 7 28 1 13 10 41 19 63 9 21 17 49 17 62 0 14 11 30 27 41 14 10
38 30 54 46 15 15 32 27 38 27 6 0 11 5 11 10 0 6 6 10 14 10 8 0 17 13 21 30
7 31 20 39 28 18 3 -7 6 -1 6 15 1 15 7 27 14 27 15 0 37 41 37 70 0 10 12 28
27 40 20 16 27 30 27 56 0 18 5 35 11 35 32 5 42 6 63 8 13 0 21 5 18 10 -3 4
6 13 19 19 14 7 25 8 25 3 0 -5 8 -7 19 -4 10 3 22 0 25 -6 4 -6 14 -11 23
-11 11 0 14 7 9 28 -4 18 -4 22 3 13 5 -8 14 -10 21 -6 7 4 38 9 69 10 149 7
224 17 238 30 19 19 70 19 108 -1 19 -10 31 -11 33 -5 5 14 39 14 47 1 3 -5
15 -10 26 -10 10 0 19 5 19 10 0 6 -5 10 -11 10 -5 0 -7 5 -3 11 5 8 9 7 15
-4 6 -9 17 -13 29 -10 19 5 20 3 9 -20 -10 -21 -9 -29 5 -42 9 -10 14 -25 11
-35 -11 -35 36 -9 53 29 14 32 16 33 20 14 4 -30 30 -30 34 0 2 15 11 23 28
25 30 4 60 29 60 49 0 8 9 26 20 40 16 20 19 39 18 97 -1 39 -5 81 -9 92 -4
13 -2 32 6 47 11 21 11 29 -2 47 -8 12 -12 24 -9 27 3 3 1 14 -5 24 -8 16 -5
21 15 29 23 8 24 11 14 44 -11 34 -28 49 -28 25 0 -5 -5 -7 -11 -4 -6 4 -7 19
-4 35 5 23 3 28 -11 26 -13 -1 -20 9 -26 34 -4 19 -5 41 -3 48 6 17 -15 15
-37 -5 -17 -15 -18 -15 -18 4 0 15 -6 19 -31 17 -28 -2 -30 0 -26 22 6 34 -11
30 -26 -6 l-13 -29 -13 44 c-14 47 -36 64 -25 20 8 -32 -7 -32 -42 0 -15 14
-35 25 -45 25 -10 0 -34 10 -54 22 -22 12 -55 22 -81 22 -24 1 -44 4 -44 9 0
4 -6 7 -14 7 -28 0 -59 91 -36 105 6 3 10 15 10 26 0 21 25 26 33 7 4 -8 6 -7
6 4 1 9 -6 23 -14 32 -11 10 -12 21 -6 38 8 20 10 21 16 6 4 -10 12 -18 17
-18 6 0 5 7 -2 15 -11 13 -10 18 2 28 23 18 30 47 13 53 -24 9 -17 24 10 24
22 0 24 3 18 32 -5 27 -4 30 12 25 14 -6 17 -3 13 17 -6 28 10 60 19 39 2 -7
10 -13 15 -13 6 0 8 3 5 7 -4 3 -2 12 4 19 9 10 7 15 -5 20 -9 3 -16 15 -16
26 0 10 5 16 10 13 6 -3 10 1 10 10 0 9 4 14 9 10 5 -3 17 9 25 26 19 38 20
47 5 32 -17 -17 -43 -5 -28 13 6 8 17 14 24 14 12 0 25 42 25 84 0 11 9 32 20
46 11 14 20 33 20 43 0 25 20 21 21 -5 0 -20 2 -19 16 10 17 33 31 40 50 21 8
-8 13 -8 18 0 3 6 -3 15 -15 19 -20 7 -17 10 19 21 23 6 39 16 36 21 -9 14 13
22 65 25 26 2 59 10 73 20 14 9 30 14 36 11 5 -3 22 -1 38 5 15 7 38 12 50 13
12 1 25 4 29 9 12 12 24 8 24 -10 0 -14 2 -15 18 -1 9 9 23 13 30 11 6 -3 12
3 12 12 0 14 6 16 31 11 27 -5 31 -3 27 12 -4 12 1 18 14 19 39 3 123 37 140
55 15 18 88 34 87 19 -4 -27 16 -51 42 -52 41 -2 46 -3 55 -11 4 -5 19 -8 33
-8 35 0 55 -15 48 -34 -7 -19 9 -31 26 -19 20 15 81 14 102 -3 17 -13 18 -16
5 -25 -11 -8 -7 -9 17 -6 19 2 34 -1 37 -8 2 -7 23 -15 46 -19 50 -8 111 -63
104 -93 -4 -13 3 -23 20 -33 14 -7 26 -17 26 -22 0 -4 7 -8 15 -8 9 0 15 -6
14 -12 -3 -16 14 -54 40 -93 12 -16 21 -37 21 -45 0 -8 16 -32 35 -52 19 -20
30 -38 23 -40 -8 -3 -7 -11 2 -28 7 -14 16 -27 20 -30 16 -12 79 -129 91 -167
7 -24 15 -43 19 -43 10 0 24 -79 34 -191 3 -31 10 -69 16 -84 7 -20 6 -62 -5
-154 -9 -69 -18 -205 -21 -301 -2 -96 -9 -268 -14 -381 -8 -146 -8 -214 0
-234 12 -33 6 -90 -22 -195 -21 -77 -25 -224 -8 -245 5 -6 7 -25 5 -43 -3 -21
1 -34 11 -40 11 -6 16 -24 16 -62 -1 -36 2 -50 9 -43 6 6 14 94 18 199 8 183
11 176 16 -36 2 -69 4 -80 15 -80 14 0 13 27 -2 32 -7 3 -9 11 -3 24 15 34 19
87 18 207 0 65 1 116 4 113 6 -6 43 -253 43 -291 1 -24 2 -27 10 -13 16 26 -6
399 -24 410 -8 5 -7 11 2 20 6 6 12 23 11 37 l-1 26 -7 -25 c-6 -20 -9 -22
-16 -10 -5 8 -8 28 -6 44 2 18 -1 26 -8 22 -6 -4 -11 -2 -11 3 0 6 5 11 10 11
16 0 12 86 -5 100 -8 7 -15 19 -15 28 0 13 2 13 18 -1 10 -10 21 -17 24 -17 7
0 24 42 37 88 12 41 -4 42 -18 0 -6 -17 -13 -29 -15 -27 -8 9 12 103 23 107 6
2 11 13 11 25 0 12 10 36 21 52 12 17 19 22 16 13 -3 -9 -11 -36 -17 -60 -7
-24 -17 -49 -22 -55 -8 -10 -5 -13 10 -13 17 0 23 14 41 88 12 48 23 113 24
144 2 32 6 61 10 64 4 4 7 17 7 30 0 12 4 24 9 26 27 10 34 524 8 605 -9 26
-18 68 -20 93 -3 25 -8 57 -12 73 -5 19 -3 27 6 27 12 0 12 2 0 9 -8 5 -15 31
-17 62 -2 30 -1 47 2 37 3 -9 12 -19 21 -22 12 -5 14 -1 9 16 -3 13 -9 50 -12
83 -6 61 -21 115 -33 115 -3 0 -15 20 -26 45 -11 25 -23 45 -27 45 -5 0 -8 10
-8 23 0 12 -7 30 -14 40 -8 10 -12 27 -9 38 4 14 0 22 -14 25 -14 4 -19 15
-20 42 -2 41 -12 68 -48 127 -13 22 -27 47 -30 55 -4 8 -11 22 -16 30 -5 8
-22 40 -38 70 -23 41 -30 49 -31 32 0 -17 -10 -27 -35 -38 -19 -7 -36 -14 -37
-14 -2 0 -4 15 -5 33 -1 17 -4 52 -8 77 -4 34 -3 40 5 22 5 -12 7 -30 4 -40
-4 -11 1 -8 15 8 l20 25 7 -32 c7 -35 18 -36 27 -4 3 11 -3 28 -14 40 -11 11
-19 24 -18 28 3 18 -1 36 -8 30 -3 -4 -12 2 -20 13 -8 11 -23 20 -34 20 -14 0
-19 7 -19 25 0 15 -6 25 -14 25 -7 0 -19 7 -26 15 -9 10 -9 15 -1 15 14 0 14
37 0 42 -6 2 -11 17 -11 33 0 16 -7 40 -15 52 -9 13 -12 23 -8 23 3 0 -3 12
-14 26 -12 15 -21 32 -21 39 0 17 25 26 37 14 7 -7 22 -6 44 3 45 18 216 13
248 -7 6 -3 11 -14 11 -24 0 -10 11 -31 25 -47 14 -16 28 -37 31 -46 3 -10 11
-18 17 -18 7 -1 0 -8 -15 -16 -31 -16 -39 -49 -10 -40 47 14 90 17 96 7 4 -6
2 -11 -5 -11 -7 0 -20 -6 -28 -14 -9 -8 -28 -16 -43 -18 -15 -2 -30 -7 -34
-10 -3 -4 -12 -4 -18 -2 -28 11 -10 -29 26 -57 44 -35 81 -36 86 -2 5 31 29
50 45 34 9 -10 8 -15 -5 -25 -28 -20 -21 -34 15 -31 17 2 49 3 70 4 26 1 37 6
37 16 0 8 6 15 14 15 7 0 19 -7 26 -15 14 -17 61 -20 75 -6 11 10 67 16 128
13 31 -2 41 -8 55 -32 9 -16 25 -30 34 -30 23 0 31 -17 12 -24 -10 -4 -14 -16
-12 -33 2 -22 10 -29 33 -34 32 -7 32 -8 1 -14 -28 -5 -60 -41 -53 -59 4 -9
18 -16 32 -16 28 0 30 -3 14 -29 -12 -18 -9 -26 103 -214 20 -34 48 -84 62
-112 14 -27 41 -75 61 -105 19 -30 35 -60 35 -67 0 -7 5 -13 11 -13 6 0 9 -20
8 -47 0 -27 2 -91 5 -143 3 -52 6 -110 6 -127 0 -18 4 -33 10 -33 15 0 50 86
50 124 0 20 5 36 10 36 6 0 10 22 10 50 0 43 -4 52 -30 72 -23 16 -29 27 -24
42 6 19 5 20 -11 6 -17 -14 -18 -13 -12 8 7 28 -10 82 -26 82 -12 0 -127 192
-127 211 0 5 -4 9 -10 9 -5 0 -10 5 -10 10 0 6 -16 35 -35 65 -45 70 -54 105
-29 106 69 2 90 9 111 35 20 25 25 27 42 17 15 -10 21 -10 24 0 2 7 8 8 13 4
5 -5 1 -14 -9 -22 -16 -12 -16 -14 -2 -29 13 -13 18 -48 22 -181 11 -301 23
-184 22 199 -1 207 -5 376 -8 376 -3 0 -29 -6 -57 -14 -29 -7 -57 -10 -64 -6
-8 5 10 13 46 20 91 19 89 18 72 38 -21 24 -23 108 -4 137 12 18 16 49 16 118
0 52 -2 96 -4 98 -5 4 -167 -6 -241 -16 -22 -2 -155 -7 -295 -11 -140 -3 -325
-11 -410 -18 -164 -13 -248 -14 -292 -1 -22 6 -28 4 -28 -9 0 -8 -11 -23 -25
-32 -14 -9 -25 -24 -26 -33 0 -10 -2 -11 -6 -3 -2 6 -13 12 -23 12 -19 0 -56
47 -52 67 1 6 -2 14 -7 18 -6 3 -8 12 -5 20 4 8 -1 18 -10 21 -9 3 -16 12 -16
20 0 8 -4 14 -10 14 -13 0 -13 -37 1 -45 6 -5 4 -12 -8 -21 -17 -14 -17 -15 5
-9 12 4 22 2 22 -4 0 -18 -21 -23 -38 -8 -9 8 -28 18 -41 22 -13 4 -49 22 -80
41 -31 19 -71 37 -89 40 -18 3 -35 10 -38 15 -3 5 -14 9 -25 9 -10 0 -27 5
-37 10 -9 6 -46 19 -82 30 -52 15 -59 19 -35 20 51 4 55 5 55 15 0 12 -149 14
-157 3z m1601 -337 c8 -7 20 -10 27 -9 10 2 15 -9 17 -34 2 -26 11 -44 29 -58
14 -11 22 -20 17 -20 -11 0 -34 -48 -34 -69 0 -26 -52 -76 -93 -90 -44 -15
-93 -8 -140 18 -18 11 -57 24 -87 31 -30 6 -64 14 -75 18 -18 5 -18 6 5 13 14
4 44 7 68 8 47 1 47 1 30 48 -9 25 -9 36 -1 44 9 9 8 19 -2 40 l-15 28 48 15
c26 8 64 21 86 29 40 15 94 9 120 -12z m-4119 -105 c17 -1 37 -5 45 -8 8 -4
29 -10 45 -15 42 -13 43 -48 6 -125 -16 -34 -27 -66 -25 -70 3 -4 23 -8 45 -8
28 0 39 -4 39 -15 0 -11 -11 -15 -41 -15 -22 0 -60 -9 -84 -20 -48 -22 -81
-19 -150 10 -71 31 -105 85 -105 163 1 85 41 118 135 110 33 -3 74 -6 90 -7z
m-566 -20 c60 -12 78 -20 97 -43 29 -35 30 -69 4 -85 -11 -7 -20 -20 -20 -28
0 -9 -6 -22 -12 -29 -11 -11 -10 -13 5 -8 11 4 16 3 12 -3 -3 -6 -11 -10 -17
-10 -12 0 -58 -47 -58 -60 0 -4 -39 -7 -87 -6 -68 1 -87 4 -85 14 1 8 -11 29
-27 48 -64 72 -63 162 2 203 38 25 85 26 186 7z m1357 -1713 c-3 -14 -9 -29
-14 -32 -12 -8 -21 -61 -11 -61 5 0 9 5 9 11 0 5 4 8 9 5 5 -4 7 4 3 16 -4 16
-2 19 8 13 10 -6 12 -4 6 10 -7 18 -6 18 14 0 12 -11 17 -21 11 -23 -6 -2 -11
-10 -11 -18 0 -20 -27 -71 -50 -94 -10 -10 -41 -66 -70 -124 -29 -58 -57 -109
-62 -112 -13 -8 -14 -12 40 98 23 48 42 97 42 108 0 12 4 19 9 16 5 -4 13 8
16 26 4 18 12 36 18 40 6 4 8 10 4 14 -8 9 -57 -45 -57 -63 0 -7 -9 -29 -21
-49 -11 -20 -18 -43 -15 -51 3 -8 1 -11 -4 -8 -6 3 -13 -1 -16 -9 -3 -9 -10
-14 -14 -11 -5 3 6 36 25 73 18 37 47 97 64 135 17 37 35 67 41 67 5 0 10 8
10 18 0 17 8 32 17 32 2 0 1 -12 -1 -27z"/>
<path d="M5060 5299 c0 -13 26 -53 176 -277 49 -74 94 -141 99 -150 17 -27 24
-36 53 -72 16 -19 48 -62 73 -95 52 -71 101 -127 106 -121 2 2 -19 39 -47 82
-27 44 -54 88 -59 99 -5 11 -23 36 -40 55 -17 19 -31 41 -31 47 0 7 -16 30
-35 52 -19 21 -35 44 -35 51 0 7 -22 38 -48 69 -27 31 -69 85 -93 121 -24 36
-47 67 -51 68 -5 2 -8 9 -8 16 0 7 -11 19 -25 26 -13 7 -22 17 -19 21 2 4 0
10 -6 14 -5 3 -10 1 -10 -6z"/>
<path d="M1330 5010 c-52 -5 -55 -6 -52 -30 2 -14 5 -26 5 -27 1 0 27 -4 57
-7 30 -3 57 -5 59 -6 2 0 -2 -6 -8 -13 -8 -11 -5 -16 15 -25 14 -7 34 -12 44
-12 25 0 26 -18 3 -28 -13 -5 -3 -9 32 -15 73 -13 235 -17 235 -6 0 5 6 9 14
9 7 0 19 7 26 15 11 13 10 14 -3 10 -8 -4 -18 -2 -22 4 -3 6 -1 11 4 11 6 0
11 7 11 17 0 9 3 13 6 10 4 -3 15 -2 26 4 18 10 16 13 -24 42 -23 17 -45 34
-48 37 -12 15 -44 19 -56 9 -10 -8 -18 -8 -27 -1 -12 10 -191 12 -297 2z"/>
<path d="M1091 4984 c-9 -7 -16 -18 -16 -26 0 -7 -16 -18 -35 -24 -36 -12 -37
-16 -15 -47 12 -17 30 -24 112 -44 13 -3 38 1 55 10 18 8 39 16 47 19 11 3 10
8 -5 23 -11 10 -19 24 -19 31 0 20 -64 73 -86 71 -12 -1 -29 -7 -38 -13z"/>
<path d="M1420 4824 c0 -14 -8 -16 -47 -10 -28 4 -70 0 -107 -9 -34 -8 -72
-15 -86 -17 -19 -2 -25 -9 -25 -27 0 -19 6 -25 28 -28 15 -2 37 -7 50 -12 14
-5 37 -3 64 8 50 18 58 36 12 27 -22 -4 -29 -2 -26 7 2 6 15 13 28 14 51 4
112 21 120 34 12 19 11 29 -1 29 -5 0 -10 -7 -10 -16z"/>
<path d="M5997 4475 c-8 -8 -17 -11 -21 -8 -3 4 -6 -9 -6 -28 0 -26 3 -30 10
-19 9 13 10 13 10 0 0 -9 -5 -21 -12 -28 -7 -7 -11 -41 -11 -85 l0 -74 -33
-12 c-18 -7 -51 -13 -74 -14 -31 -1 -40 -5 -40 -19 0 -24 -162 -75 -194 -60
-14 6 -37 5 -71 -4 -27 -7 -63 -14 -80 -14 -35 -1 -121 -22 -131 -33 -4 -4
-18 -7 -32 -7 -20 0 -23 -4 -18 -22 3 -13 6 -30 6 -38 1 -12 4 -11 15 4 8 10
12 23 9 27 -3 5 2 9 10 9 19 0 21 -21 4 -38 -9 -9 -8 -12 5 -12 18 0 25 -44 8
-54 -14 -9 -35 -106 -25 -116 5 -5 20 -2 34 6 14 9 17 13 8 10 -11 -3 -18 0
-18 8 0 13 41 26 84 26 34 0 52 16 38 33 -13 15 -22 92 -13 104 16 22 93 46
158 50 73 4 95 -5 74 -31 -7 -9 -7 -16 2 -25 9 -10 8 -14 -5 -22 -35 -20 -17
-28 50 -24 l67 5 -77 -37 c-73 -34 -96 -53 -65 -53 7 0 33 9 56 21 24 11 71
23 104 27 l62 7 -35 17 c-19 10 -29 18 -22 18 9 0 11 10 6 34 -14 79 24 126
103 126 20 0 32 4 28 10 -3 6 0 10 7 10 10 0 10 2 0 8 -14 10 -12 63 3 68 6 3
9 22 7 44 -3 25 0 40 7 40 6 0 11 8 11 18 0 14 -2 15 -10 2 -7 -11 -10 -7 -10
18 0 17 5 32 10 32 6 0 10 13 10 29 0 16 4 41 10 55 11 30 8 32 -13 11z"/>
<path d="M4173 3961 c-10 -9 -25 -17 -33 -18 -45 -7 -77 -17 -92 -31 -15 -13
-20 -13 -34 -1 -16 13 -17 11 -12 -14 3 -15 3 -25 0 -23 -8 8 -43 -14 -37 -24
3 -5 -3 -10 -12 -12 -14 -3 -11 -7 12 -19 20 -10 29 -21 28 -34 -1 -11 2 -33
7 -48 6 -18 6 -26 0 -22 -12 8 -13 -5 -1 -24 6 -9 3 -21 -10 -34 -10 -12 -19
-30 -19 -42 0 -12 -3 -25 -7 -29 -8 -8 -12 -49 -12 -116 0 -46 17 -110 29
-110 6 0 10 -6 10 -14 0 -17 35 -27 49 -13 7 7 16 3 31 -15 11 -15 35 -29 55
-32 19 -4 35 -11 35 -16 0 -6 8 -10 18 -10 10 0 27 -7 39 -15 24 -17 193 -75
218 -75 14 0 15 3 5 15 -7 8 -19 15 -26 15 -8 0 -22 4 -32 9 -9 5 -36 17 -59
27 -22 10 -46 26 -52 36 -8 14 -1 13 47 -7 31 -12 82 -26 112 -30 30 -3 70
-11 89 -15 19 -5 41 -6 49 -1 15 8 2 12 -93 27 -22 3 -42 8 -44 10 -11 11 19
24 61 27 26 1 50 5 53 9 3 3 25 3 49 1 26 -3 46 -1 50 6 8 12 59 15 70 4 10
-10 100 -32 106 -27 2 3 -17 25 -43 48 -41 38 -44 44 -27 49 11 3 23 1 26 -4
3 -5 10 -9 15 -9 6 0 8 4 5 9 -3 5 5 16 19 25 31 20 32 36 3 29 -19 -4 -20 -3
-8 7 12 9 9 10 -14 5 -25 -5 -28 -4 -23 14 3 14 0 21 -9 21 -8 0 -15 10 -16
23 0 12 -1 29 -2 37 -1 8 -13 16 -28 18 -18 2 -28 11 -32 28 -4 15 -14 24 -26
24 -19 0 -70 19 -80 30 -3 3 -17 11 -32 17 -16 7 -28 17 -28 22 0 6 -8 8 -17
4 -14 -4 -13 -1 5 16 12 12 30 21 40 20 9 -1 50 -1 91 0 71 1 73 2 68 24 -6
20 -3 22 43 23 29 0 47 -3 43 -9 -3 -6 -1 -7 5 -3 15 9 61 -24 62 -44 0 -8 8
-26 16 -40 9 -14 13 -17 10 -6 -5 14 -3 17 11 11 45 -18 54 -18 46 1 -20 48
-54 104 -64 104 -6 0 -8 4 -4 10 7 11 -16 50 -30 50 -6 0 -16 9 -23 20 -7 12
-17 18 -22 15 -6 -3 -10 -2 -10 3 0 15 -87 39 -173 47 -32 3 -70 11 -85 17
-15 6 -74 13 -132 15 -153 6 -160 7 -160 18 0 17 -47 14 -67 -4z"/>
<path d="M3344 3066 c-3 -9 -13 -16 -21 -16 -8 0 -11 -4 -8 -10 3 -5 1 -10 -5
-10 -6 0 -20 -16 -31 -35 -12 -19 -27 -35 -35 -35 -7 0 -18 -10 -25 -21 -9
-17 -13 -19 -20 -8 -7 12 -9 11 -9 -1 0 -15 -69 -102 -70 -87 0 4 -12 -5 -28
-20 -15 -15 -40 -35 -55 -43 -16 -8 -33 -22 -38 -31 -5 -11 -16 -15 -29 -12
-13 3 -22 -1 -26 -11 -4 -10 -13 -14 -24 -11 -12 4 -24 -2 -33 -15 -9 -14 -17
-17 -22 -11 -3 6 -20 11 -37 11 -23 0 -29 -4 -24 -15 8 -21 -21 -32 -71 -29
-23 2 -45 -1 -48 -6 -3 -6 -17 -10 -29 -10 -13 0 -29 -6 -35 -14 -8 -9 -26
-13 -50 -10 -35 3 -38 1 -34 -16 4 -15 0 -20 -15 -20 -12 0 -24 -4 -27 -10 -3
-5 -1 -10 5 -10 8 0 8 -6 0 -20 -6 -11 -16 -17 -25 -14 -8 4 -15 2 -15 -2 1
-13 91 -54 118 -54 13 0 31 4 41 9 13 8 21 5 32 -11 8 -11 20 -26 27 -32 8 -6
38 -34 68 -62 29 -29 55 -46 58 -40 6 16 26 -14 26 -40 0 -12 -7 -27 -15 -34
-11 -9 -13 -26 -10 -68 3 -31 9 -60 15 -66 5 -5 32 -10 60 -11 41 -2 50 1 45
13 -4 11 1 13 18 10 18 -4 26 2 35 21 10 23 16 26 52 23 32 -3 40 -8 40 -24 0
-14 -5 -18 -15 -14 -18 6 -20 -10 -3 -20 13 -8 58 -12 58 -5 0 2 -8 13 -17 24
-18 20 -17 20 32 13 28 -4 91 -11 140 -15 50 -4 108 -15 129 -25 21 -10 62
-22 90 -27 28 -5 76 -16 106 -25 30 -9 60 -16 65 -16 37 0 162 16 170 22 6 5
31 11 57 13 37 4 46 3 41 -8 -3 -10 1 -13 19 -9 12 3 28 6 35 8 7 1 16 5 19 9
12 12 21 8 27 -13 6 -23 30 -26 49 -7 6 8 22 12 34 9 15 -3 26 3 33 17 7 13
22 21 38 21 14 0 35 11 48 24 16 17 26 21 33 14 7 -7 14 -4 21 11 7 12 18 21
27 21 8 0 17 7 20 15 9 22 32 18 45 -7 20 -37 38 -51 52 -40 7 5 32 10 56 10
24 1 47 6 51 13 4 6 13 8 19 5 6 -4 11 -3 11 2 0 5 18 17 40 27 37 17 53 35
30 35 -5 0 -10 5 -10 10 0 6 11 10 24 10 32 0 44 20 17 27 -12 3 -20 11 -18
17 3 6 -3 20 -12 30 -12 14 -13 20 -3 23 19 7 14 23 -8 23 -13 0 -20 7 -20 19
0 20 -25 35 -41 26 -5 -4 -6 0 -3 8 4 11 -1 13 -18 10 -17 -3 -31 4 -51 26
-15 17 -31 31 -36 31 -5 0 -12 8 -16 19 -9 28 -40 61 -59 61 -9 0 -16 5 -16
10 0 6 -11 22 -25 36 -13 13 -28 39 -33 57 -6 23 -14 31 -26 29 -12 -2 -15 1
-11 8 7 12 -27 50 -45 50 -5 0 -10 11 -10 24 0 14 -4 28 -10 31 -5 3 -10 15
-10 26 0 11 -8 22 -17 25 -10 3 -28 11 -40 16 -36 17 -54 -4 -39 -45 6 -18 14
-34 18 -37 19 -15 45 -94 39 -118 -7 -25 -10 -26 -82 -28 -42 -1 -85 -6 -97
-13 -26 -14 -109 -15 -117 -1 -4 6 -22 17 -41 25 -42 18 -282 26 -287 10 -2
-6 -14 -5 -31 3 -18 8 -26 18 -22 27 3 9 0 12 -9 9 -8 -3 -16 3 -20 16 -5 15
-12 19 -26 15 -12 -4 -21 -1 -25 9 -4 10 -18 16 -35 16 -16 0 -29 4 -29 8 0 4
-13 13 -30 19 -50 19 -40 49 45 138 41 44 75 83 75 87 0 4 -7 8 -16 8 -9 0
-25 10 -35 21 -16 19 -19 20 -25 5z m-179 -399 c-1 -24 6 -30 32 -26 3 0 10
-6 15 -15 5 -9 13 -14 19 -11 5 4 14 -6 19 -20 5 -14 14 -23 20 -20 5 3 10 1
10 -5 0 -7 8 -9 19 -5 11 3 22 1 26 -5 3 -5 12 -10 18 -10 7 0 6 4 -3 10 -13
8 -12 10 3 10 9 0 17 -4 17 -8 0 -9 71 -47 83 -44 4 1 7 -9 7 -23 0 -15 11
-36 26 -50 14 -13 23 -29 19 -34 -3 -6 -2 -11 4 -11 5 0 12 6 14 13 4 8 6 7 6
-3 1 -8 23 -26 50 -38 42 -21 59 -23 137 -18 49 3 95 5 102 5 7 1 11 5 8 10
-3 5 5 12 19 15 16 4 25 13 25 26 0 11 7 20 15 20 8 0 15 7 15 16 0 10 6 14
15 10 8 -3 15 -2 15 2 0 9 60 36 78 35 8 -1 23 8 33 18 11 11 24 17 29 14 6
-4 17 1 26 9 19 20 37 11 29 -15 -4 -11 -2 -19 4 -19 6 0 11 7 11 16 0 8 5 12
10 9 16 -10 11 -43 -7 -49 -15 -4 -15 -5 2 -4 49 1 65 -3 65 -16 0 -8 -11 -17
-25 -20 -15 -4 -25 -13 -24 -24 0 -9 3 -12 5 -5 3 7 12 9 20 6 7 -3 11 -9 8
-15 -3 -5 3 -12 15 -15 15 -4 21 -13 21 -33 0 -16 5 -30 12 -32 8 -3 9 -11 3
-24 -4 -10 -9 -37 -9 -58 -1 -35 -4 -41 -31 -48 -54 -15 -220 15 -302 54 -34
17 -52 19 -90 13 -26 -4 -58 -8 -70 -9 -12 0 -25 -4 -29 -8 -4 -4 -12 -4 -18
1 -6 6 -31 12 -55 15 -23 3 -50 11 -58 18 -8 6 -35 13 -60 13 -25 1 -39 -1
-31 -6 7 -5 -1 -8 -22 -8 -19 1 -81 0 -137 -1 -57 -1 -145 2 -195 6 -51 4
-101 6 -110 6 -11 0 -18 8 -20 26 -2 21 -10 28 -33 33 -16 4 -22 7 -12 8 22 1
22 17 -1 23 -19 5 -30 68 -12 68 5 0 10 -8 10 -19 0 -10 9 -21 20 -24 11 -3
20 -1 20 4 0 5 -7 9 -15 9 -8 0 -15 9 -15 19 0 21 22 33 45 25 9 -4 15 0 15
10 0 9 8 17 18 17 15 1 15 2 0 6 -21 6 -26 20 -20 66 3 29 8 37 19 33 11 -4
13 -2 9 9 -4 11 1 15 19 15 20 0 24 5 22 23 -1 14 3 22 13 22 8 0 21 10 28 23
17 30 37 23 37 -11z"/>
<path d="M5845 2849 c-114 -32 -160 -36 -169 -14 -4 10 -17 14 -41 13 -21 -2
-33 -7 -31 -14 3 -7 -3 -10 -15 -7 -25 7 -56 -17 -37 -28 10 -7 10 -9 -2 -9
-13 0 -13 -2 0 -10 10 -6 -1 -11 -38 -16 -74 -9 -96 -29 -87 -77 7 -35 27 -49
39 -28 7 10 82 29 136 34 19 2 50 11 68 21 18 9 58 21 90 27 31 6 68 17 81 26
13 8 44 18 70 22 43 6 46 8 49 40 2 18 0 37 -5 41 -4 3 -53 -6 -108 -21z"/>
<path d="M5865 2631 c6 -11 4 -13 -8 -8 -12 5 -19 -1 -23 -19 -12 -48 -78 -70
-119 -40 -20 15 -45 11 -45 -7 0 -6 -7 -19 -17 -29 -9 -10 -12 -18 -7 -19 29
-2 69 -11 74 -15 3 -3 -15 -4 -38 -1 -49 5 -43 -10 10 -24 25 -6 15 -8 -44 -6
-100 3 -104 -16 -5 -24 90 -8 113 -15 121 -37 10 -31 77 -107 104 -119 15 -7
42 -12 60 -13 l32 0 0 165 0 165 -27 0 c-15 0 -38 10 -51 23 -14 12 -22 16
-17 8z"/>
<path d="M4834 2334 c-17 -38 -55 -127 -84 -199 -29 -71 -66 -156 -81 -188
-15 -31 -23 -55 -18 -51 5 3 9 -4 9 -15 0 -28 -30 -102 -39 -96 -4 2 -5 -10
-3 -27 3 -21 7 -26 13 -17 7 10 9 9 7 -6 0 -11 0 -36 1 -55 l3 -35 15 48 c16
53 35 64 27 15 -4 -25 -3 -29 5 -18 12 17 8 -112 -4 -142 -4 -11 -3 -18 4 -18
6 0 11 4 11 9 0 37 23 168 31 176 7 7 8 5 4 -6 -3 -8 -1 -26 4 -40 l10 -24 0
26 c1 39 22 91 35 86 8 -3 12 39 13 147 2 183 4 196 20 196 7 0 21 9 30 20 10
11 23 20 30 20 7 0 13 5 13 10 0 6 -7 10 -15 10 -8 0 -15 5 -15 11 0 5 3 8 8
5 11 -7 38 17 46 40 14 44 15 85 3 81 -7 -2 -11 -14 -9 -25 3 -18 -2 -22 -22
-22 -29 0 -31 5 -13 43 6 15 20 27 30 27 11 0 17 6 15 18 -2 11 3 16 15 14 19
-3 20 -1 11 22 -3 9 -13 16 -21 16 -8 0 -12 -4 -9 -9 5 -8 -11 -19 -32 -21 -4
-1 -9 9 -12 20 -4 18 -12 8 -36 -46z"/>
<path d="M3233 2041 c-32 -16 -43 -31 -22 -31 5 0 7 -4 4 -10 -3 -5 1 -10 9
-10 8 0 19 -8 25 -17 5 -10 13 -15 16 -11 4 4 15 -2 24 -13 9 -11 27 -21 41
-21 14 -1 32 -10 41 -20 9 -10 26 -18 38 -18 11 0 21 -6 21 -14 0 -10 -14 -13
-49 -13 -28 0 -56 -5 -66 -13 -14 -12 -18 -12 -26 1 -7 11 -11 11 -17 2 -6 -9
-28 -11 -75 -7 -79 6 -89 -8 -33 -51 19 -15 36 -36 38 -48 2 -14 10 -22 23
-22 11 0 38 -10 60 -21 25 -13 64 -21 105 -23 36 -1 70 -7 77 -13 10 -8 141
-21 206 -20 11 1 15 -4 10 -11 -4 -8 -1 -8 9 1 10 8 26 10 42 6 17 -4 26 -2
26 5 0 8 20 11 58 9 69 -2 118 15 126 45 6 23 -15 47 -42 47 -7 0 -11 4 -8 9
3 5 -7 14 -24 19 -20 8 -28 16 -24 26 4 11 -6 18 -36 27 -42 13 -42 13 -20 29
20 15 21 20 10 40 l-12 23 -14 -24 c-7 -13 -13 -32 -14 -41 0 -15 -4 -16 -25
-8 -14 5 -48 10 -76 11 -56 2 -68 12 -46 37 22 26 11 42 -25 35 -28 -5 -30 -4
-23 16 7 23 -4 28 -24 9 -10 -10 -15 -10 -18 -1 -2 7 -11 9 -20 6 -8 -3 -19 0
-24 8 -8 12 -11 12 -20 -1 -8 -12 -12 -12 -16 -2 -4 10 -8 10 -19 1 -11 -9
-15 -8 -20 5 -7 19 -30 21 -37 4 -4 -10 -6 -10 -6 0 -1 6 -7 12 -15 12 -7 0
-19 7 -26 15 -7 8 -24 15 -37 15 -20 0 -24 4 -20 20 3 11 4 19 4 19 -1 -1 -17
-9 -34 -18z"/>
<path d="M5427 1514 c-3 -3 0 -15 6 -26 10 -16 9 -22 -1 -25 -10 -4 -9 -9 4
-24 13 -15 15 -22 6 -31 -9 -9 -8 -16 5 -30 15 -17 15 -18 -2 -18 -16 0 -16
-2 -2 -24 12 -17 13 -26 4 -35 -8 -8 -8 -14 0 -22 9 -9 8 -17 -3 -34 -13 -19
-13 -24 1 -35 8 -7 12 -16 9 -22 -3 -5 0 -16 7 -24 10 -13 10 -17 -1 -24 -11
-7 -11 -11 -1 -23 10 -12 10 -20 -1 -37 -11 -18 -11 -23 4 -34 11 -8 13 -17 7
-28 -13 -24 -1 -51 15 -35 7 7 13 19 14 27 6 46 8 186 3 195 -2 5 -6 34 -8 64
-2 30 -6 57 -8 60 -3 2 0 10 6 17 7 9 7 19 -1 34 -11 21 -15 45 -19 113 -1 19
-6 27 -19 27 -10 0 -21 -3 -25 -6z"/>
<path d="M1155 508 c-9 -30 -25 -187 -25 -253 0 -40 -3 -94 -7 -121 l-7 -49
-6 35 c-4 19 -3 42 0 50 9 21 0 130 -11 130 -11 0 -26 -61 -33 -135 -4 -38
-11 -62 -21 -68 -8 -4 -15 -16 -15 -25 0 -10 -5 -23 -11 -29 -7 -7 -9 -19 -6
-27 5 -13 26 -16 116 -16 l109 0 7 50 c7 48 1 222 -12 340 -3 30 -5 67 -4 83
1 15 -3 27 -9 27 -12 0 -12 -1 -10 -104 1 -48 -3 -82 -10 -86 -6 -4 -11 -29
-12 -56 -1 -27 -3 -41 -6 -31 -4 20 -18 23 -25 5 -7 -16 1 204 9 255 5 35 -2
52 -11 25z"/>
<path d="M4687 369 c-3 -12 1 -36 10 -52 11 -21 12 -36 6 -46 -13 -21 -10 -90
3 -99 20 -13 24 -43 9 -72 -13 -26 -13 -29 7 -42 18 -12 19 -17 9 -36 -11 -20
-10 -22 19 -22 17 0 30 5 30 13 0 17 -25 156 -49 266 -21 100 -34 127 -44 90z"/>
<path d="M5908 245 c-19 -25 -16 -47 9 -77 13 -14 12 -19 -6 -37 -12 -12 -27
-21 -35 -21 -7 0 -19 -7 -26 -15 -13 -16 -5 -20 30 -16 8 1 3 -6 -13 -17 -15
-10 -36 -28 -48 -40 l-20 -22 76 0 75 0 0 118 c0 134 -12 169 -42 127z"/>
</g>
</svg>
